<svg xmlns="http://www.w3.org/2000/svg" xmlns:xlink="http://www.w3.org/1999/xlink" version="1.1" x="0px" y="0px" viewBox="0 0 130 125" enable-background="new 0 0 100 100" xml:space="preserve">
    <rect class="rect7" x="29.4" y="76" width="41.2" height="5"/>
    <rect class="rect7" x="29.9" y="19" width="40.3" height="5"/>
    <rect class="rect7" x="76" y="29.7" width="5" height="40.6"/>
    <rect x="19" y="29.4" width="5" height="40.7"/>
    <path d="M90,30.4c0,1.4-1.2,2.6-2.6,2.6H69.6c-1.4,0-2.6-1.2-2.6-2.6V12.6c0-1.4,1.2-2.6,2.6-2.6h17.8c1.4,0,2.6,1.2,2.6,2.6V30.4z   M72,28h13V15H72V28z"/>
    <path d="M33,30.4c0,1.4-1.2,2.6-2.6,2.6H12.6c-1.4,0-2.6-1.2-2.6-2.6V12.6c0-1.4,1.2-2.6,2.6-2.6h17.8c1.4,0,2.6,1.2,2.6,2.6V30.4z   M15,28h13V15H15V28z"/>
    <path d="M90,87.4c0,1.4-1.2,2.6-2.6,2.6H69.6c-1.4,0-2.6-1.2-2.6-2.6V69.6c0-1.4,1.2-2.6,2.6-2.6h17.8c1.4,0,2.6,1.2,2.6,2.6V87.4z   M72,85h13V72H72V85z"/>
    <path d="M33,87.4c0,1.4-1.2,2.6-2.6,2.6H12.6c-1.4,0-2.6-1.2-2.6-2.6V69.6c0-1.4,1.2-2.6,2.6-2.6h17.8c1.4,0,2.6,1.2,2.6,2.6V87.4z   M15,85h13V72H15V85z"/>
    <text x="0" y="105" fill="#000000" font-size="10px" font-weight="bold" font-family="'Helvetica Neue', Helvetica, Arial-Unicode, Arial, Sans-serif">Created by sagit milshtein</text>
    <text x="0" y="115" fill="#000000" font-size="10px" font-weight="bold" font-family="'Helvetica Neue', Helvetica, Arial-Unicode, Arial, Sans-serif">from the Noun Project</text>
</svg>